<?xml version="1.0" encoding="UTF-8"?> <svg xmlns="http://www.w3.org/2000/svg" id="a" viewBox="0 0 616.27 421.85"><defs><style> .c{fill:#a9c6de} </style></defs><path class="c" d="M345.97 108h-75.68l37.8-108 37.88 108z"></path><path style="fill:#041a39" d="M385.44 220.62H230.83L268.51 113h79.18l37.75 107.62z"></path><path class="c" d="M54.06 420.49c-1.4.74-3.26 1.37-5.78 1.37-4.09 0-6.58-1.4-8.54-3.26-2.7-2.59-3.75-5.5-3.75-8.93 0-4.24 1.75-7.28 3.75-9.14 2.35-2.21 5.25-3.08 8.58-3.08 1.65 0 3.61.28 5.74 1.43v5.32a7.534 7.534 0 0 0-5.64-2.63c-4.69 0-7.74 3.85-7.74 8.16 0 5.18 3.99 7.98 7.91 7.98 2.17 0 4.1-.94 5.46-2.55v5.32ZM86.26 409.67c0 7.11-5.11 12.18-12.46 12.18s-12.46-5.08-12.46-12.18 5.11-12.22 12.46-12.22 12.46 5.11 12.46 12.22Zm-4.69 0c0-4.73-3.22-8.09-7.77-8.09s-7.77 3.36-7.77 8.09 3.22 8.05 7.77 8.05 7.77-3.33 7.77-8.05ZM99.21 397.98v19.43h7.21v3.92H94.66v-23.35h4.55ZM119.86 397.98c3.25 0 6.09.35 8.68 2.28 2.84 2.14 4.48 5.53 4.48 9.42s-1.61 7.25-4.69 9.42c-2.73 1.93-5.29 2.24-8.54 2.24h-6.02v-23.35h6.09Zm-1.54 19.43h1.4c1.15 0 3.67-.07 5.71-1.54 1.86-1.33 2.91-3.71 2.91-6.2s-1.01-4.83-2.87-6.23c-1.89-1.4-4.2-1.54-5.74-1.54h-1.4v15.51ZM165.25 403.3c-1.37-1.82-2.98-2-3.82-2-2.45 0-3.22 1.54-3.22 2.73 0 .56.18 1.09.74 1.58.56.53 1.33.81 2.8 1.33 1.82.63 3.54 1.26 4.73 2.35 1.05.95 2 2.52 2 4.9 0 4.55-3.29 7.67-8.12 7.67-4.31 0-6.83-2.62-8.05-4.41l2.97-2.84a5.475 5.475 0 0 0 4.9 3.12c2.06 0 3.6-1.26 3.6-3.22 0-.84-.28-1.51-.91-2.1-.88-.8-2.28-1.26-3.61-1.71-1.23-.42-2.7-.98-3.89-2.03-.77-.67-1.86-1.96-1.86-4.34 0-3.43 2.31-6.86 7.49-6.86 1.47 0 4.24.28 6.62 2.73l-2.38 3.12ZM183.66 401.9v19.43h-4.55V401.9h-5.25v-3.92h15.05v3.92h-5.25ZM218.77 409.67c0 7.11-5.11 12.18-12.46 12.18s-12.46-5.08-12.46-12.18 5.11-12.22 12.46-12.22 12.46 5.11 12.46 12.22Zm-4.69 0c0-4.73-3.22-8.09-7.77-8.09s-7.77 3.36-7.77 8.09 3.22 8.05 7.77 8.05 7.77-3.33 7.77-8.05ZM233.92 397.98c3.22 0 4.87.84 5.95 1.75 1.79 1.5 2.31 3.5 2.31 5.25 0 2.28-.91 4.27-2.73 5.5-.59.42-1.43.8-2.55 1.01l7.28 9.84h-5.67l-6.23-9.38h-.56v9.38h-4.55v-23.35h6.76Zm-2.21 10.75H233c.88 0 4.48-.11 4.48-3.54s-3.57-3.5-4.41-3.5h-1.37v7.04ZM265.28 416.43h-9.42l-2.06 4.9h-4.94l10.05-23.35h3.57l9.77 23.35h-4.9l-2.07-4.9Zm-1.33-3.71-3.33-8.4-3.33 8.4h6.65ZM289.96 408.83h10.71v.28c0 1.58-.21 6.48-3.43 9.66-2.42 2.42-5.39 3.08-8.3 3.08s-5.92-.59-8.47-3.15c-.81-.8-3.47-3.75-3.47-9 0-4.52 2.03-7.28 3.43-8.68 1.75-1.79 4.69-3.57 9.21-3.57 1.75 0 3.61.28 5.39 1.22 1.5.77 3.15 2.17 4.38 4.27l-3.96 2.14c-.81-1.58-2-2.38-2.73-2.77-.98-.49-2.21-.74-3.29-.74-1.86 0-3.96.67-5.39 2.07-1.33 1.29-2.35 3.54-2.35 6.16 0 3.12 1.33 4.97 2.31 5.92 1.05 1.02 2.7 2 5.18 2 1.54 0 3.29-.42 4.58-1.4.91-.7 1.82-1.89 2.21-3.57h-6.02v-3.92ZM322.02 401.9h-8.4v5.22h8.05v3.92h-8.05v6.37h8.4v3.92h-12.95v-23.35h12.95v3.92ZM363.21 412.61c-1.4 1.75-1.86 2.17-2.52 2.84l-.53.52 4.73 5.36h-5.64l-2.27-2.62c-1.09.98-3.82 3.15-7.53 3.15-4.79 0-7.32-3.33-7.32-6.69s2.7-5.29 3.75-5.92l1.82-1.08c-.8-.8-2.35-2.62-2.35-4.9 0-2.91 2.1-5.81 6.44-5.81 4.06 0 6.27 2.7 6.27 5.57 0 1.68-.81 3.68-3.29 5.18l-.98.59 3.85 4.41c1.58-1.54 2.42-2.56 2.91-3.22l2.66 2.62Zm-13.2-1.86c-1.79.95-3.33 2.24-3.33 4.03s1.47 3.08 3.43 3.08 3.54-1.26 4.31-2.03l-4.41-5.08Zm1.61-4.38 1.05-.74c1.26-.88 1.61-1.82 1.61-2.59 0-1.16-.7-2.31-2.28-2.31s-2.38 1.12-2.38 2.17c0 .88.49 1.61.98 2.21l1.02 1.26ZM388.93 397.98v19.43h7.21v3.92h-11.76v-23.35h4.55ZM426.56 409.67c0 7.11-5.11 12.18-12.46 12.18s-12.46-5.08-12.46-12.18 5.11-12.22 12.46-12.22 12.46 5.11 12.46 12.22Zm-4.69 0c0-4.73-3.22-8.09-7.77-8.09s-7.77 3.36-7.77 8.09 3.22 8.05 7.77 8.05 7.77-3.33 7.77-8.05ZM446.79 408.83h10.71v.28c0 1.58-.21 6.48-3.43 9.66-2.42 2.42-5.39 3.08-8.3 3.08s-5.92-.59-8.47-3.15c-.81-.8-3.47-3.75-3.47-9 0-4.52 2.03-7.28 3.43-8.68 1.75-1.79 4.69-3.57 9.21-3.57 1.75 0 3.61.28 5.39 1.22 1.5.77 3.15 2.17 4.38 4.27l-3.96 2.14c-.81-1.58-2-2.38-2.73-2.77-.98-.49-2.21-.74-3.29-.74-1.86 0-3.96.67-5.39 2.07-1.33 1.29-2.35 3.54-2.35 6.16 0 3.12 1.33 4.97 2.31 5.92 1.05 1.02 2.7 2 5.18 2 1.54 0 3.29-.42 4.58-1.4.91-.7 1.82-1.89 2.21-3.57h-6.02v-3.92ZM470.45 397.98v23.35h-4.55v-23.35h4.55ZM491.45 403.3c-1.37-1.82-2.98-2-3.82-2-2.45 0-3.22 1.54-3.22 2.73 0 .56.17 1.09.74 1.58.56.53 1.33.81 2.8 1.33 1.82.63 3.54 1.26 4.72 2.35 1.05.95 2 2.52 2 4.9 0 4.55-3.29 7.67-8.12 7.67-4.31 0-6.83-2.62-8.05-4.41l2.97-2.84a5.475 5.475 0 0 0 4.9 3.12c2.06 0 3.6-1.26 3.6-3.22 0-.84-.28-1.51-.91-2.1-.88-.8-2.27-1.26-3.6-1.71-1.23-.42-2.7-.98-3.89-2.03-.77-.67-1.86-1.96-1.86-4.34 0-3.43 2.31-6.86 7.49-6.86 1.47 0 4.24.28 6.62 2.73l-2.38 3.12ZM509.86 401.9v19.43h-4.55V401.9h-5.25v-3.92h15.05v3.92h-5.25ZM526.73 397.98v23.35h-4.55v-23.35h4.55ZM553.19 420.49c-1.4.74-3.26 1.37-5.78 1.37-4.09 0-6.58-1.4-8.54-3.26-2.7-2.59-3.75-5.5-3.75-8.93 0-4.24 1.75-7.28 3.75-9.14 2.35-2.21 5.25-3.08 8.58-3.08 1.65 0 3.61.28 5.74 1.43v5.32a7.534 7.534 0 0 0-5.64-2.63c-4.69 0-7.74 3.85-7.74 8.16 0 5.18 3.99 7.98 7.91 7.98 2.17 0 4.1-.94 5.46-2.55v5.32ZM573.07 403.3c-1.37-1.82-2.98-2-3.82-2-2.45 0-3.22 1.54-3.22 2.73 0 .56.17 1.09.74 1.58.56.53 1.33.81 2.8 1.33 1.82.63 3.54 1.26 4.72 2.35 1.05.95 2 2.52 2 4.9 0 4.55-3.29 7.67-8.12 7.67-4.31 0-6.83-2.62-8.05-4.41l2.97-2.84a5.475 5.475 0 0 0 4.9 3.12c2.06 0 3.6-1.26 3.6-3.22 0-.84-.28-1.51-.91-2.1-.88-.8-2.27-1.26-3.6-1.71-1.23-.42-2.7-.98-3.89-2.03-.77-.67-1.86-1.96-1.86-4.34 0-3.43 2.31-6.86 7.49-6.86 1.47 0 4.24.28 6.62 2.73l-2.38 3.12Z"></path><g><path class="c" d="M54.92 345.13h-28.8l-4.63 13.47H0l29.52-77.55h22.01l29.52 77.55H59.56l-4.63-13.47Zm-5.35-15.32-9.05-25.82-9.05 25.82h18.1ZM172.89 358.6h-25.1l-19.23-29.83v29.83H108.4v-77.55h31.37c4.32 0 8.09.64 11.31 1.9 3.22 1.27 5.88 3 7.97 5.2s3.67 4.73 4.73 7.61c1.06 2.88 1.59 5.96 1.59 9.26 0 5.9-1.42 10.68-4.27 14.35-2.85 3.67-7.05 6.15-12.6 7.46l24.38 31.78Zm-44.33-42.89h3.8c3.98 0 7.03-.82 9.16-2.47 2.12-1.64 3.19-4.01 3.19-7.1s-1.06-5.45-3.19-7.1c-2.13-1.64-5.18-2.47-9.16-2.47h-3.8v19.13ZM254.24 306.97c-4.66-5.69-10.42-8.53-17.28-8.53-3.02 0-5.81.55-8.38 1.64-2.57 1.1-4.78 2.59-6.63 4.47-1.85 1.89-3.31 4.13-4.37 6.74-1.06 2.61-1.59 5.42-1.59 8.43s.53 5.93 1.59 8.54c1.06 2.61 2.54 4.87 4.42 6.79 1.89 1.92 4.1 3.43 6.63 4.53 2.54 1.1 5.28 1.64 8.23 1.64 6.44 0 12.24-2.74 17.38-8.23v23.86l-2.06.72c-3.09 1.09-5.97 1.9-8.64 2.42-2.67.51-5.31.77-7.92.77-5.35 0-10.47-1.01-15.37-3.03-4.9-2.02-9.22-4.87-12.96-8.54-3.74-3.67-6.74-8.02-9-13.06-2.26-5.04-3.39-10.54-3.39-16.51s1.11-11.43 3.34-16.4c2.23-4.97 5.21-9.26 8.95-12.86 3.74-3.6 8.07-6.41 13.01-8.43 4.94-2.02 10.11-3.04 15.53-3.04 3.09 0 6.12.33 9.1.98 2.98.65 6.12 1.66 9.41 3.04v24.07ZM334.88 345.13h-28.8l-4.63 13.47h-21.5l29.52-77.55h22.01L361 358.6h-21.49l-4.63-13.47Zm-5.35-15.32-9.05-25.82-9.05 25.82h18.1ZM388.36 281.05h29.83c5.28 0 10.23 1.06 14.86 3.19 4.63 2.13 8.67 4.95 12.14 8.48 3.46 3.53 6.19 7.65 8.18 12.34 1.99 4.7 2.98 9.61 2.98 14.76s-.98 9.96-2.93 14.66c-1.95 4.7-4.66 8.83-8.13 12.39-3.46 3.57-7.51 6.41-12.14 8.53-4.63 2.13-9.62 3.19-14.97 3.19h-29.83v-77.55Zm20.16 60.48h4.63c3.5 0 6.62-.55 9.36-1.64 2.74-1.1 5.06-2.61 6.94-4.53 1.89-1.92 3.32-4.2 4.32-6.84.99-2.64 1.49-5.53 1.49-8.69s-.51-5.96-1.54-8.64-2.49-4.97-4.37-6.89c-1.89-1.92-4.2-3.43-6.94-4.52-2.74-1.09-5.83-1.64-9.26-1.64h-4.63v43.4ZM507.87 281.05v77.55h-20.16v-77.55h20.16ZM590.15 345.13h-28.8l-4.63 13.47h-21.5l29.52-77.55h22.01l29.52 77.55h-21.5l-4.63-13.47Zm-5.35-15.32-9.05-25.82-9.05 25.82h18.1Z"></path></g></svg> 