<svg width="34" height="28" viewBox="0 0 34 28" fill="none" xmlns="http://www.w3.org/2000/svg">
<path d="M25.19 27.7199H17.27C16.59 27.7199 16.16 26.9699 16.51 26.3899L20.45 19.7999L24.43 13.1399C24.77 12.5699 25.6 12.5699 25.94 13.1399L29.92 19.7999L33.86 26.3899C34.21 26.9799 33.79 27.7199 33.1 27.7199H25.18H25.19Z" fill="#7782FF"/>
<path d="M24.71 9.31978C27.2063 9.31978 29.23 7.29611 29.23 4.79979C29.23 2.30346 27.2063 0.279785 24.71 0.279785C22.2137 0.279785 20.19 2.30346 20.19 4.79979C20.19 7.29611 22.2137 9.31978 24.71 9.31978Z" fill="#0026FF"/>
<path d="M12.36 27.7196H0.63C0.15 27.7196 -0.15 27.1896 0.1 26.7796L5.95 16.9996L11.83 7.16963C12.07 6.76963 12.66 6.76963 12.9 7.16963L18.78 16.9996L24.63 26.7796C24.88 27.1996 24.58 27.7196 24.1 27.7196H12.37H12.36Z" fill="#5065FF"/>
</svg>
