<svg xmlns="http://www.w3.org/2000/svg" xmlns:xlink="http://www.w3.org/1999/xlink" id="Capa_1" x="0px" y="0px" viewBox="0 0 227.46 63.12" style="enable-background:new 0 0 227.46 63.12;" xml:space="preserve"><style type="text/css">	.st0{fill:#FF8300;}	.st1{fill:#00538B;}	.st2{fill-rule:evenodd;clip-rule:evenodd;fill:#00538B;}</style><g>	<g>		<path class="st0" d="M72.74,20.23c-4.09,2.55-14.18,9.72-28.6,7.61l0.31,0.51c4.17,1.4,17.47,3.61,28.31-7.67L72.74,20.23z"></path>		<path class="st0" d="M79.15,34.67c-4.59,3.77-18.72,11.56-31.26,8.63l0.31,0.5c5.39,2.2,18.92,4.84,30.95-8.69V34.67z"></path>		<path class="st1" d="M59.3,48.81c-3.07-4.19-10.03-15.73-4.16-28.57l-0.9,0.33c-3.48,4.26-10.39,15.88,4.32,28.26L59.3,48.81z"></path>		<path class="st1" d="M68.59,47.12c1.51-5.01,4.2-18.3-5.57-28.3l0.95,0C68.65,21.6,79,30.08,69.29,46.88L68.59,47.12z"></path>		<g>			<path class="st2" d="M85.97,28.63c-1.04-5.13-3.5-7.08-5.48-8.39l-0.24,0.25c2.77,3.83,3.31,8.21,3.05,10.57    c-0.99,9.41-7.22,15.66-18.53,18c-6.59,1.36-20.56,0.68-23.16-12.38c-1.51-7.58,5.35-17.53,18.41-18.99    c15.31-1.71,21.47,6.47,10.09,13.37c-10.11,6.13-20.42,5.62-26.24,4.52l-0.15,0.36c4.97,1.17,13.04,4.21,25.57-1.08    c18.89-7.99,8.71-23.98-12.5-19.53c-13.85,2.9-20.56,13.57-18.64,22.76c2.31,11.03,15.57,17.31,30.42,13.31    C82.21,47.73,87.82,37.71,85.97,28.63z"></path>		</g>	</g>	<g>		<path class="st1" d="M93.96,23h2.25v8.04h8.83V23h4.46v21.53h-4.46V35h-8.83v9.53h-4.46V25.31C91.75,24.08,92.73,23,93.96,23z"></path>		<path class="st1" d="M112.46,25.31c0-1.49,0.73-2.28,2.22-2.31h13.36v3.74H116.8v4.62h8.39v1.42c0.03,1.49-0.73,2.22-2.28,2.22   h-6.11v5.57h11.24v3.96h-15.58V25.31z"></path>		<path class="st1" d="M133.26,23h2.38l8.77,14.79V23h4.34v21.53h-4.59l-8.77-14.79v14.79h-4.34V25.31   C131.05,24.08,132.03,23,133.26,23z"></path>		<path class="st1" d="M161.58,44.85c-6.62,0-9.91-4.37-9.91-11.08c0-6.93,3.48-11.11,10.29-11.11c2.63,0,4.75,0.63,6.36,1.96   c1.52,1.36,2.38,3.23,2.6,5.57h-2.66c-0.95,0-1.65-0.44-2.06-1.3c-0.73-1.55-2.15-2.34-4.24-2.34c-4.08,0-5.89,2.88-5.89,7.22   c0,4.21,1.74,7.19,5.76,7.19c2.75,0,4.34-1.52,4.81-3.89h4.27C170.5,42.03,167.02,44.85,161.58,44.85z"></path>		<path class="st1" d="M173.64,33.77c0-6.59,3.89-11.11,10.29-11.11c6.43,0,10.32,4.59,10.32,11.11c0,6.62-3.77,11.08-10.32,11.08   C177.38,44.85,173.64,40.35,173.64,33.77z M178.04,33.77c0,4.21,1.87,7.38,5.89,7.38c4.02,0,5.92-3.04,5.92-7.38   c0-4.24-1.9-7.28-5.92-7.28C179.91,26.48,178.04,29.59,178.04,33.77z"></path>	</g></g></svg>