<?xml version="1.0" encoding="UTF-8"?> <svg xmlns="http://www.w3.org/2000/svg" xmlns:xlink="http://www.w3.org/1999/xlink" id="Capa_1" data-name="Capa 1" viewBox="0 0 607.93 506.28"><defs><style>.cls-1{fill:none;}.cls-2{clip-path:url(#clip-path);}.cls-3{fill:#0075c9;}</style><clipPath id="clip-path"><rect class="cls-1" x="23.41" y="15.82" width="564" height="474"></rect></clipPath></defs><g class="cls-2"><path class="cls-3" d="M103.12,403H65.68l18.87-45.3Zm2.75,7.18,8.25,19.94c1,3,1.84,4.44,1.84,7.87,0,6.31-9.3,6.31-14.55,6.31v3.59h60v-3.59c-10.46,0-15-12.34-18.49-21L97.46,313H95.58L52.38,416.33c-4.45,10.58-9.86,27-22.62,28v3.59H71.07v-3.59c-9.33-.55-16.44-1.42-16.44-11,0-3.79,1.71-7.77,3.53-12.59l4.35-10.56Z"></path><path class="cls-3" d="M275.26,323.37h5.23c24.32,0,26.56,19.74,26.56,25.75,0,16.53-9,26.11-31.79,26.11Zm0,59.47h5.61c28.62,0,30.42,21.94,30.42,30,0,15.87-10.2,27.52-25.57,27.52-8.57,0-10.46-3.41-10.46-12.6Zm-28.75,40.1c0,16.16,0,21.34-17.63,21.34v3.6h61c44.47,0,54.39-22.33,54.39-35.91,0-22.33-17.38-30.31-35-33.92v-.43c13.66-3.34,28.45-10.75,28.45-29.12,0-4,0-32.7-43.78-32.7H228.88v3.57c17.63,0,17.63,5.19,17.63,21.36Z"></path><path class="cls-3" d="M537,358.5h-3.4c-3.9-20.75-19.8-37.14-40.17-37.14-24.7,0-40.94,23.56-40.94,58.86,0,44.07,15.9,61.47,40.74,61.47,18.14,0,30.46-9.94,41.73-24.12v11.34c-13.69,15.6-28.45,22-48.3,22-40.73,0-67-28.1-67-66.66,0-39.51,30.79-71.49,67.68-71.49,9.9,0,18.46,2.23,27.63,6,2.75,1.21,7.71,3.6,10.82,3.6,4.91,0,7.28-5,7.84-9.62H537Z"></path><path class="cls-3" d="M382,222.72a6.49,6.49,0,0,1-1.48,1.22l-9.87,6.23h-2.6l9.44-9.49a9.41,9.41,0,0,1,1.25-1,2.67,2.67,0,0,1,1.6-.53,2.22,2.22,0,0,1,1.49.58,1.89,1.89,0,0,1,.67,1.52,2.28,2.28,0,0,1-.5,1.5"></path><path class="cls-3" d="M52.38,232.9a31.4,31.4,0,0,0,4.31,1.69,2.12,2.12,0,0,0,1.9-1.11,4.81,4.81,0,0,0,.82-2.25h1.78v17.19H59.6a41.77,41.77,0,0,0-4.43-8.84c-2.87-3.91-6.13-5.93-9.75-5.93-4.06,0-7,2.12-8.67,6.44s-2.51,9.95-2.51,17.16a46.89,46.89,0,0,0,1.46,13q2.79,9.58,10.45,9.59a13.79,13.79,0,0,0,8.7-3.19,38.31,38.31,0,0,0,5.46-5.83l1.75,1.78a35.5,35.5,0,0,1-6.21,7,16.47,16.47,0,0,1-10.65,3.83A20,20,0,0,1,30.12,277c-4.42-4.79-6.71-11.19-6.71-19.3s2.17-14.5,6.45-19.48a19,19,0,0,1,22.52-5.29"></path><path class="cls-3" d="M65.78,281.93v-1.88a7,7,0,0,0,3.66-.85c1.12-.81,1.7-2.22,1.7-4.36V239.07c0-2.14-.58-3.57-1.72-4.34a8.19,8.19,0,0,0-3.64-.85V232h35V246.9H99.21c-.75-4.8-2.08-8-4-9.77s-5.15-2.64-10.07-2.64c-1.87,0-3.06.22-3.55.7s-.75,1.4-.75,2.81v17.18c3.52,0,5.86-.69,7.07-2.23s2.21-4.43,2.85-8.53h1.54V269H90.8c-.42-4.17-1.3-7.12-2.66-8.83s-3.74-2.57-7.26-2.57v17.89c0,1.57.32,2.64,1,3.19s2.07.84,4.15.84a15.54,15.54,0,0,0,9.51-2.74c2.44-1.84,4.64-5.25,6.56-10.25h1.68l-2.45,15.38Z"></path><path class="cls-3" d="M106.22,280.05c2.27-.08,3.64-.58,4.29-1.55a7.91,7.91,0,0,0,.94-4.36v-35c-1.81-2.5-2.94-4-3.35-4.46a2.94,2.94,0,0,0-1.75-.82V232h12.79L140,263h.28V241.1c0-2.45-.34-4.22-1.09-5.33s-2.24-1.7-4.43-1.89V232h12.88v1.84a7.22,7.22,0,0,0-3.72,1.57c-.65.64-.95,2.1-.95,4.36v43.62H141.3l-26.75-39.67h-.38v29.05a10.8,10.8,0,0,0,.75,4.81c.82,1.51,2.46,2.34,5,2.43v1.88H106.22Z"></path><path class="cls-3" d="M150.62,232h36.23l0,14.88h-1.72c-.62-5.31-2.26-9-4.89-10.8a12.59,12.59,0,0,0-6.71-1.72v38.9c0,2.75.34,4.52,1.13,5.41S177,280,179.49,280v1.9H157.92V280c2.43,0,4-.42,4.79-1.33s1.18-2.73,1.18-5.41v-38.9a12.67,12.67,0,0,0-6.73,1.72c-2.9,1.9-4.53,5.53-4.87,10.8h-1.73Z"></path><path class="cls-3" d="M205.37,256.51V237.68a3.36,3.36,0,0,1,.77-2.44c.52-.51,1.59-.75,3.21-.75a6.24,6.24,0,0,1,6.2,4.2,18.52,18.52,0,0,1,1,6.82c0,4.66-.89,7.65-2.56,8.94s-4.64,2-8.64,2.06m-15.08,25.42H210.6v-1.88c-2.06-.06-3.49-.56-4.2-1.49s-1-2.65-1-5.23V258.85h1.72l12.53,23.08H232v-1.88a3.22,3.22,0,0,1-1.41-.35,2.59,2.59,0,0,1-1.1-1.07l-11.38-20.95a11.4,11.4,0,0,0,5.4-3.33c2.24-2.3,3.4-5.47,3.4-9.49,0-5.44-2.43-9.17-7.3-11.28a26.4,26.4,0,0,0-9.78-1.56H190.29v1.86c2,.21,3.35.61,3.92,1.19.87.85,1.34,2.71,1.34,5.56v32.7c0,2.72-.38,4.5-1.11,5.37s-2.15,1.27-4.15,1.35Z"></path><path class="cls-3" d="M256.55,281c-4.6,0-7.7-3.32-9.39-9.88a56.37,56.37,0,0,1-1.36-13.93,58,58,0,0,1,1.33-13.87c1.66-6.64,4.82-10,9.42-10,3.26,0,5.89,2,7.79,6s2.89,10,2.89,17.87a62.84,62.84,0,0,1-1.32,13.93c-1.73,6.56-4.83,9.88-9.36,9.88m0-50.13A19,19,0,0,0,241,238.5c-4,4.95-6,11.32-6,19.06q0,10.57,5.7,18a19.68,19.68,0,0,0,31,.68q6.22-7.36,6.23-19c0-7.83-2.08-14.14-6.23-19.09a19.07,19.07,0,0,0-15.2-7.23"></path><path class="cls-3" d="M295.87,280.05c2.28,0,3.79-.52,4.49-1.51a7.76,7.76,0,0,0,1-4.4V239.06c0-2-.36-3.31-1.13-3.94a7.34,7.34,0,0,0-4.08-1.24V232h15.2l11.9,34.19h.57L335.64,232h15.22v1.84a6.64,6.64,0,0,0-4.12,1.37c-.78.74-1.11,2.52-1.11,5.38v32.68c0,2.71.33,4.48,1.11,5.37s2.06,1.29,4.12,1.37v1.88h-20v-1.88a7.66,7.66,0,0,0,4.06-1.06c.91-.71,1.35-2.16,1.35-4.32V238.52h-.44L321,281.93H319.3L304.25,239.2l-.27.1v33.51c0,2.46.36,4.26,1.13,5.37s2.37,1.78,4.94,1.87v1.88H295.87Z"></path><path class="cls-3" d="M353.13,281.93v-1.88a7.27,7.27,0,0,0,3.7-.85c1.12-.81,1.66-2.22,1.66-4.36V239.07c0-2.14-.54-3.57-1.72-4.34a7.88,7.88,0,0,0-3.64-.85V232h35.05V246.9h-1.57c-.81-4.8-2.07-8-3.92-9.77s-5.22-2.64-10.13-2.64c-1.82,0-3,.22-3.54.7s-.74,1.4-.74,2.81v17.18c3.47,0,5.85-.69,7.1-2.23s2.19-4.43,2.82-8.53h1.53V269H378.2c-.41-4.17-1.36-7.12-2.67-8.83s-3.78-2.57-7.25-2.57v17.89c0,1.57.31,2.64,1,3.19s2,.84,4.11.84a15.55,15.55,0,0,0,9.5-2.74q3.69-2.76,6.54-10.25h1.7l-2.42,15.38Z"></path><path class="cls-3" d="M408.31,275.18V238.79a6.79,6.79,0,0,1,.47-3.07c.48-.85,1.49-1.23,3.05-1.23,4.75,0,8.2,3,10.23,9A42.61,42.61,0,0,1,423.9,257c0,8.77-1.18,14.74-3.46,17.81a10.63,10.63,0,0,1-8.87,4.62c-1.3,0-2.16-.3-2.57-1.05a7,7,0,0,1-.69-3.21m-14.85,6.75h19.13q10.44,0,16.5-7.9a26.83,26.83,0,0,0,5.4-16.92q0-11.18-5.4-17.79c-3.86-4.88-9.6-7.3-17.1-7.3H393.46v1.86a8.32,8.32,0,0,1,3.41.89c1.13.74,1.68,2.11,1.68,4.06v36.35c0,1.94-.59,3.31-1.8,4.08a7.16,7.16,0,0,1-3.29.79Z"></path><path class="cls-3" d="M437.34,280.05a7.59,7.59,0,0,0,3.67-.74c1.26-.79,1.87-2.24,1.87-4.46V239.06c0-2.18-.59-3.61-1.76-4.36a7.93,7.93,0,0,0-3.78-.82V232h21.18v1.84a9.28,9.28,0,0,0-3.92.78c-1.2.72-1.79,2.22-1.79,4.4v35.79c0,2.06.49,3.48,1.48,4.16a6.86,6.86,0,0,0,4.23,1v1.88H437.34Z"></path><path class="cls-3" d="M491.07,232.9a25.56,25.56,0,0,0,4.35,1.69,2,2,0,0,0,1.84-1.11,5.91,5.91,0,0,0,.91-2.25h1.7v17.19h-1.56a42.06,42.06,0,0,0-4.5-8.84c-2.85-3.91-6.09-5.93-9.72-5.93-4,0-6.9,2.12-8.64,6.44s-2.55,9.95-2.55,17.16a48.46,48.46,0,0,0,1.46,13c1.86,6.39,5.38,9.59,10.45,9.59a13.62,13.62,0,0,0,8.71-3.19,35.13,35.13,0,0,0,5.44-5.83l1.82,1.78a34.54,34.54,0,0,1-6.27,7,16.36,16.36,0,0,1-10.61,3.83A19.91,19.91,0,0,1,468.82,277c-4.49-4.79-6.67-11.19-6.67-19.3s2.08-14.5,6.39-19.48a19.06,19.06,0,0,1,22.53-5.29"></path><path class="cls-3" d="M527.13,281c-4.59,0-7.7-3.32-9.42-9.88a60.05,60.05,0,0,1-1.35-13.93,59.16,59.16,0,0,1,1.31-13.87c1.7-6.64,4.87-10,9.46-10,3.27,0,5.88,2,7.85,6s2.82,10,2.82,17.87a58.16,58.16,0,0,1-1.35,13.93c-1.7,6.56-4.86,9.88-9.32,9.88m0-50.13a19.16,19.16,0,0,0-15.61,7.61c-3.91,4.95-5.89,11.32-5.89,19.06,0,7.05,1.83,13,5.67,18a19.7,19.7,0,0,0,31,.68c4.19-4.91,6.25-11.25,6.25-19s-2.06-14.14-6.25-19.09a19.08,19.08,0,0,0-15.2-7.23"></path><path class="cls-3" d="M311,138.29c13.63,7.1,30.08,16.41,35.19,22.55,0,0,7.42,7.3,7.85,17.68.24,7-2,11-4.91,16.39H324.34s8.84-10.76-8.2-20.23c0,0-55.67-29.29-80.9-42.23,0,0-36.61-16-33.27-45.22,0,0,1.94-37.66,57.6-42.07,0,0,10.93-1.37,10.93,12.67,0,0-1.48,22.2-17.55,23,0,0-16,0-16.5,10,0,0-1.15,8.58,14.18,16.49,0,0,.88.51,2.46,1.29Z"></path><path class="cls-3" d="M281.16,163.35l11.42,5.91-1.05,22.19s.08,3.46-2.89,3.46h-3.19a3.14,3.14,0,0,1-3.06-3.46Z"></path><polygon class="cls-3" points="292.97 122.4 280.59 116.29 275.7 44.1 298.15 44.1 292.97 122.4"></polygon><path class="cls-3" d="M221.29,201s5,9.52,13.79,12.46h-211V201.12Z"></path><path class="cls-3" d="M306,27c0,6.17-8.41,11.18-18.92,11.18s-19.18-5-19.18-11.18S276.44,15.81,287,15.81,306,20.8,306,27"></path><path class="cls-3" d="M254,213.44H547.83V200.93H264c-10,0-13.36-6.92-13.36-6.92s-6.91-10.83,6.93-19.33c0,0,8.32-5.55,21.29-12.36l-30.18-15.84c-8.45,4.35-26,17.55-26,33.35,0,0-1.23,33.61,31.27,33.61"></path><path class="cls-3" d="M295.51,123.5c6.65-4,27.52-16.23,27.52-16.23,15.37-7.91,14.14-16.52,14.14-16.52-.46-10-16.45-10-16.45-10-16.05-.75-17.49-22.93-17.49-22.93,0-14.05,10.84-12.66,10.84-12.66,55.72,4.38,57.61,42.07,57.61,42.07,3.43,29.23-33.28,45.2-33.28,45.2-3.87,2-9,4.14-14.08,6.68Z"></path><rect class="cls-3" x="24.27" y="290.39" width="523.43" height="12.49"></rect><rect class="cls-3" x="24.27" y="460.44" width="523.43" height="25.17"></rect><path class="cls-3" d="M570.62,466.36a6.23,6.23,0,0,1,3.37.71,2.48,2.48,0,0,1,1.1,2.24,2.35,2.35,0,0,1-1,2.14,5.74,5.74,0,0,1-3.23.74h-2.61v-5.83Zm-6.37,15.93h4v-7.75h2.88l3.63,7.75h4.41L575,473.94a5.14,5.14,0,0,0,3-1.72,5.06,5.06,0,0,0,1.08-3.38,4.22,4.22,0,0,0-2-3.73,11.11,11.11,0,0,0-5.77-1.25h-7.09Zm12.13-21.8a14.91,14.91,0,0,1,4.67,3.11,14,14,0,0,1,2.93,4.56,14.78,14.78,0,0,1,1,5.47,13,13,0,0,1-1.07,5.23,13.64,13.64,0,0,1-3,4.44,14.42,14.42,0,0,1-10.17,4.1,13.32,13.32,0,0,1-5.16-1.07,14.45,14.45,0,0,1-4.52-3.13,13,13,0,0,1-3-4.5,13.75,13.75,0,0,1-1.06-5.25,13.39,13.39,0,0,1,1.11-5.43,14.51,14.51,0,0,1,3.11-4.56,13.87,13.87,0,0,1,4.42-3,15,15,0,0,1,10.76.06m-11.64-2.32a15.55,15.55,0,0,0-5.26,3.47,17,17,0,0,0-3.68,5.43,16.68,16.68,0,0,0-1.23,6.34,15.52,15.52,0,0,0,1.23,6.17,14.06,14.06,0,0,0,3.54,5.29,17.77,17.77,0,0,0,5.31,3.68,16.33,16.33,0,0,0,12.58,0,18,18,0,0,0,5.4-3.56,15.35,15.35,0,0,0,3.56-5.28,16.11,16.11,0,0,0,1.23-6.32,16.31,16.31,0,0,0-1.2-6.3,16.07,16.07,0,0,0-3.5-5.23,15.12,15.12,0,0,0-5.37-3.63A16.13,16.13,0,0,0,571,457a16.71,16.71,0,0,0-6.23,1.22"></path></g></svg> 